<svg id="svg" version="1.1" xmlns="http://www.w3.org/2000/svg" xmlns:xlink="http://www.w3.org/1999/xlink" width="400" height="400" viewBox="0, 0, 400,400"><g id="svgg"><path id="path0" d="M221.313 25.429 L 220.000 26.857 221.429 25.544 C 222.758 24.322,223.032 24.000,222.741 24.000 C 222.678 24.000,222.035 24.643,221.313 25.429 M246.174 71.243 C 245.274 72.078,244.682 72.762,244.859 72.762 C 245.035 72.762,245.848 72.076,246.667 71.238 C 248.581 69.277,248.287 69.280,246.174 71.243 M263.333 97.420 C 264.119 97.503,265.405 97.503,266.190 97.420 C 266.976 97.338,266.333 97.271,264.762 97.271 C 263.190 97.271,262.548 97.338,263.333 97.420 M291.092 100.743 C 291.220 100.871,291.894 101.139,292.589 101.338 C 293.285 101.538,293.694 101.555,293.498 101.376 C 293.094 101.006,290.734 100.385,291.092 100.743 M224.095 106.889 C 223.414 107.187,222.857 107.507,222.857 107.600 C 222.857 107.881,225.128 106.999,225.357 106.629 C 225.610 106.218,225.647 106.211,224.095 106.889 M215.429 110.299 C 214.800 110.587,214.553 110.831,214.880 110.840 C 215.206 110.849,215.806 110.605,216.213 110.298 C 217.116 109.615,216.923 109.615,215.429 110.299 M82.363 114.068 C 80.594 115.319,80.345 115.677,81.839 114.821 C 82.536 114.422,83.285 113.881,83.505 113.619 C 84.068 112.946,83.803 113.050,82.363 114.068 M325.746 118.190 C 325.833 118.243,326.419 118.714,327.048 119.238 L 328.190 120.190 327.267 119.143 C 326.759 118.567,326.173 118.095,325.965 118.095 C 325.757 118.095,325.659 118.138,325.746 118.190 M328.709 120.645 C 329.194 121.571,329.905 122.142,329.905 121.605 C 329.905 121.416,329.537 120.934,329.087 120.535 C 328.276 119.815,328.273 119.815,328.709 120.645 M331.794 123.524 C 332.728 124.519,333.542 125.333,333.603 125.333 C 333.889 125.333,333.587 124.991,331.905 123.413 L 330.095 121.714 331.794 123.524 M68.549 125.245 C 66.479 127.421,66.587 127.342,70.402 123.887 C 70.702 123.615,70.875 123.319,70.785 123.229 C 70.695 123.140,69.689 124.047,68.549 125.245 M305.513 180.593 C 305.282 181.023,305.150 181.545,305.219 181.752 C 305.288 181.959,305.541 181.607,305.782 180.969 C 306.282 179.643,306.133 179.434,305.513 180.593 M35.144 204.762 C 35.148 205.600,35.226 205.898,35.317 205.424 C 35.408 204.950,35.405 204.265,35.309 203.900 C 35.214 203.536,35.139 203.924,35.144 204.762 M35.136 225.524 C 35.136 226.257,35.214 226.557,35.310 226.190 C 35.406 225.824,35.406 225.224,35.310 224.857 C 35.214 224.490,35.136 224.790,35.136 225.524 M314.844 258.571 C 315.176 259.252,315.529 259.810,315.629 259.810 C 316.008 259.810,315.764 259.203,315.016 258.286 L 314.240 257.333 314.844 258.571 M351.661 292.624 C 351.219 293.934,350.870 295.186,350.885 295.407 C 350.901 295.629,351.328 294.623,351.835 293.172 C 352.342 291.721,352.691 290.469,352.611 290.389 C 352.531 290.309,352.103 291.315,351.661 292.624 M349.551 298.503 C 349.411 299.062,349.370 299.592,349.460 299.682 C 349.549 299.772,349.737 299.388,349.878 298.830 C 350.018 298.272,350.059 297.741,349.969 297.652 C 349.879 297.562,349.691 297.945,349.551 298.503 M348.179 302.116 C 347.949 302.547,347.817 303.069,347.886 303.276 C 347.955 303.483,348.208 303.130,348.449 302.493 C 348.949 301.167,348.799 300.957,348.179 302.116 M73.969 341.478 C 74.458 342.231,74.997 342.850,75.169 342.852 C 75.523 342.858,74.078 340.723,73.475 340.351 C 73.259 340.217,73.481 340.724,73.969 341.478 M327.603 342.117 C 327.147 342.758,326.838 343.346,326.915 343.423 C 326.993 343.501,327.442 342.977,327.913 342.258 C 328.974 340.639,328.734 340.529,327.603 342.117 M80.606 351.048 C 80.950 351.571,81.293 352.000,81.369 352.000 C 81.445 352.000,81.312 351.571,81.074 351.048 C 80.835 350.524,80.492 350.095,80.311 350.095 C 80.130 350.095,80.263 350.524,80.606 351.048 M93.333 367.738 C 93.333 367.804,93.890 368.361,94.571 368.976 L 95.810 370.095 94.691 368.857 C 93.648 367.703,93.333 367.444,93.333 367.738 M96.154 370.992 C 96.961 371.900,97.143 371.983,97.143 371.442 C 97.143 371.240,96.757 370.872,96.286 370.625 C 95.433 370.177,95.432 370.179,96.154 370.992 M302.643 374.952 L 301.524 376.190 302.762 375.072 C 303.916 374.029,304.175 373.714,303.881 373.714 C 303.815 373.714,303.258 374.271,302.643 374.952 M198.952 377.804 C 199.948 377.882,201.576 377.882,202.571 377.804 C 203.567 377.725,202.752 377.661,200.762 377.661 C 198.771 377.661,197.957 377.725,198.952 377.804 M180.667 380.236 C 179.986 380.432,179.429 380.677,179.429 380.780 C 179.429 381.056,181.465 380.527,181.886 380.141 C 182.301 379.761,182.315 379.760,180.667 380.236 " stroke="none" fill="#9c9c9c" fill-rule="evenodd"></path><path id="path1" d="" stroke="none" fill="#a49c9c" fill-rule="evenodd"></path><path id="path2" d="M266.993 3.848 C 266.709 4.027,266.178 4.080,265.813 3.967 C 265.448 3.853,264.946 3.886,264.698 4.040 C 264.449 4.193,263.573 4.369,262.751 4.430 C 261.929 4.491,261.044 4.718,260.784 4.934 C 260.524 5.150,260.222 5.238,260.113 5.129 C 260.004 5.020,259.420 5.124,258.815 5.361 C 258.209 5.597,257.200 5.875,256.571 5.979 C 255.943 6.082,255.232 6.328,254.992 6.525 C 254.753 6.723,254.410 6.841,254.231 6.788 C 254.051 6.735,253.305 6.923,252.571 7.207 C 251.838 7.491,251.067 7.769,250.857 7.826 C 250.648 7.883,249.790 8.235,248.952 8.607 C 248.114 8.980,247.300 9.253,247.143 9.214 C 246.986 9.175,246.857 9.324,246.857 9.546 C 246.857 9.768,246.710 9.859,246.530 9.747 C 246.124 9.497,235.777 14.702,235.200 15.447 C 234.970 15.745,234.670 15.877,234.534 15.740 C 234.397 15.604,234.286 15.673,234.286 15.895 C 234.286 16.117,233.887 16.399,233.399 16.521 C 232.911 16.643,232.054 17.168,231.494 17.687 C 230.934 18.206,230.476 18.520,230.476 18.386 C 230.476 18.252,230.142 18.474,229.733 18.881 C 228.454 20.150,227.898 20.533,227.669 20.304 C 227.546 20.181,227.338 20.363,227.206 20.707 C 227.074 21.052,226.729 21.333,226.439 21.333 C 226.149 21.333,225.697 21.676,225.435 22.095 C 225.174 22.514,224.812 22.857,224.632 22.857 C 223.984 22.857,215.761 30.856,213.271 33.908 C 210.172 37.708,209.128 39.091,208.673 40.000 C 208.411 40.524,207.819 41.369,207.357 41.879 C 206.895 42.388,206.604 42.946,206.710 43.117 C 206.815 43.288,206.717 43.429,206.491 43.429 C 206.264 43.429,205.874 43.900,205.624 44.476 C 205.373 45.052,204.802 46.038,204.355 46.667 C 203.607 47.717,203.125 48.723,203.031 49.433 C 203.010 49.588,202.777 49.971,202.512 50.286 C 201.842 51.081,200.334 54.112,200.161 55.010 C 200.082 55.419,199.866 55.852,199.681 55.972 C 199.496 56.092,198.967 57.305,198.505 58.667 C 198.042 60.029,197.494 61.493,197.286 61.921 C 197.078 62.349,196.859 62.949,196.798 63.254 C 196.738 63.560,196.478 64.324,196.220 64.952 C 195.962 65.581,195.734 66.438,195.713 66.857 C 195.692 67.276,195.519 67.826,195.328 68.079 C 195.138 68.331,195.085 68.705,195.212 68.909 C 195.338 69.114,195.286 69.376,195.097 69.493 C 194.789 69.683,194.653 70.179,194.143 72.952 C 193.956 73.969,193.503 77.097,193.234 79.228 C 192.911 81.791,192.961 92.898,193.298 93.234 C 193.733 93.667,203.256 93.423,205.693 92.917 C 206.857 92.675,208.067 92.426,208.381 92.363 C 208.695 92.300,208.952 92.223,208.952 92.192 C 208.952 92.162,209.597 92.058,210.385 91.962 C 211.174 91.866,212.288 91.597,212.862 91.364 C 213.435 91.131,214.162 90.902,214.476 90.855 C 215.475 90.707,219.512 89.116,222.784 87.580 C 224.525 86.763,226.068 86.093,226.213 86.091 C 226.505 86.086,233.445 81.786,234.174 81.158 C 234.427 80.940,234.775 80.762,234.947 80.762 C 235.118 80.762,235.775 80.290,236.407 79.714 C 237.038 79.138,237.976 78.390,238.492 78.053 C 240.642 76.644,250.773 67.048,250.110 67.048 C 249.922 67.048,250.344 66.533,251.048 65.905 C 251.752 65.276,252.223 64.762,252.094 64.762 C 251.966 64.762,252.449 64.138,253.168 63.375 C 253.888 62.613,254.476 61.755,254.476 61.471 C 254.476 61.186,254.622 60.952,254.800 60.952 C 255.161 60.952,259.429 54.677,259.429 54.146 C 259.429 53.960,259.686 53.594,260.000 53.333 C 260.314 53.072,260.571 52.537,260.571 52.144 C 260.571 51.750,260.753 51.429,260.975 51.429 C 261.197 51.429,261.272 51.257,261.143 51.048 C 261.013 50.838,261.061 50.667,261.250 50.667 C 261.551 50.667,264.338 45.375,264.560 44.381 C 264.607 44.171,264.870 43.486,265.146 42.857 C 265.421 42.229,265.619 41.586,265.585 41.429 C 265.551 41.271,265.675 41.143,265.860 41.143 C 266.045 41.143,266.290 40.757,266.403 40.286 C 266.516 39.814,267.052 38.229,267.594 36.762 C 268.135 35.295,268.652 33.702,268.743 33.222 C 268.834 32.741,269.168 31.454,269.486 30.361 C 269.803 29.268,270.157 27.690,270.272 26.854 C 270.514 25.089,270.658 24.409,270.960 23.619 C 271.600 21.942,272.250 5.367,271.731 3.952 C 271.547 3.450,267.759 3.367,266.993 3.848 M257.495 97.670 C 257.406 97.753,256.305 97.933,255.048 98.070 C 253.790 98.207,252.248 98.476,251.619 98.669 C 250.990 98.862,249.962 99.121,249.333 99.245 C 248.015 99.504,246.078 99.866,245.524 99.958 C 245.314 99.993,244.917 100.162,244.641 100.335 C 244.365 100.507,244.044 100.552,243.926 100.434 C 243.809 100.317,243.204 100.484,242.583 100.805 C 241.961 101.127,241.372 101.308,241.272 101.209 C 241.173 101.109,240.117 101.371,238.927 101.791 C 237.736 102.210,236.505 102.609,236.190 102.676 C 234.949 102.943,225.668 106.423,224.952 106.890 C 224.533 107.164,223.613 107.488,222.908 107.612 C 222.202 107.735,221.088 108.121,220.432 108.469 C 219.775 108.817,219.033 109.137,218.782 109.181 C 218.531 109.224,217.588 109.602,216.686 110.021 C 215.785 110.439,214.190 111.046,213.143 111.370 C 212.095 111.693,209.867 112.480,208.190 113.119 C 206.514 113.757,205.098 114.269,205.042 114.257 C 204.987 114.244,203.958 114.448,202.757 114.710 C 201.555 114.972,200.370 115.151,200.124 115.107 C 199.878 115.063,199.594 115.161,199.494 115.323 C 199.307 115.626,192.231 115.288,190.435 114.891 C 187.523 114.247,177.901 111.023,175.958 110.041 C 175.202 109.658,174.259 109.283,173.863 109.206 C 173.467 109.130,172.379 108.711,171.445 108.274 C 170.512 107.838,169.612 107.565,169.445 107.667 C 169.279 107.770,169.143 107.673,169.143 107.451 C 169.143 107.229,168.891 107.048,168.582 107.048 C 168.274 107.048,167.062 106.623,165.889 106.104 C 164.715 105.585,163.639 105.193,163.497 105.233 C 163.355 105.272,162.852 105.091,162.381 104.829 C 161.910 104.568,161.524 104.450,161.524 104.568 C 161.524 104.685,161.010 104.516,160.381 104.190 C 159.752 103.865,159.238 103.711,159.238 103.846 C 159.238 103.982,159.024 103.918,158.762 103.704 C 158.104 103.165,148.047 100.295,145.714 99.980 C 143.211 99.642,142.624 99.546,140.491 99.125 C 138.787 98.789,125.668 98.847,123.238 99.202 C 122.610 99.293,121.067 99.484,119.810 99.625 C 118.552 99.766,117.352 100.005,117.143 100.157 C 116.933 100.309,116.248 100.466,115.619 100.505 C 114.990 100.545,113.911 100.763,113.220 100.991 C 112.529 101.218,111.586 101.451,111.125 101.507 C 110.663 101.564,109.514 101.836,108.571 102.111 C 107.629 102.386,106.729 102.581,106.571 102.543 C 106.414 102.506,106.286 102.658,106.286 102.880 C 106.286 103.102,106.114 103.177,105.905 103.048 C 105.695 102.918,105.310 102.946,105.048 103.110 C 104.786 103.273,104.365 103.439,104.112 103.477 C 103.859 103.515,103.104 103.820,102.434 104.154 C 101.764 104.489,101.062 104.762,100.873 104.762 C 100.684 104.762,99.725 105.139,98.741 105.600 C 97.757 106.061,96.867 106.448,96.762 106.461 C 96.219 106.529,93.875 107.619,93.686 107.892 C 93.566 108.066,93.095 108.280,92.640 108.368 C 91.531 108.581,89.524 109.788,89.524 110.241 C 89.524 110.440,89.415 110.495,89.282 110.362 C 89.149 110.229,88.612 110.457,88.088 110.870 C 87.564 111.282,86.914 111.619,86.643 111.619 C 86.371 111.619,85.923 111.839,85.646 112.108 C 85.369 112.377,83.857 113.443,82.286 114.476 C 80.714 115.510,79.235 116.532,78.999 116.749 C 78.763 116.966,78.185 117.400,77.714 117.714 C 77.244 118.029,76.635 118.500,76.361 118.762 C 76.088 119.024,75.706 119.238,75.513 119.238 C 75.320 119.238,74.766 119.754,74.283 120.385 C 73.800 121.015,73.320 121.447,73.216 121.343 C 73.113 121.240,72.219 121.967,71.231 122.959 C 70.242 123.950,68.424 125.742,67.192 126.939 C 65.960 128.136,64.330 129.765,63.568 130.558 C 61.594 132.616,56.381 139.310,56.381 139.788 C 56.381 140.009,56.221 140.190,56.026 140.190 C 55.830 140.190,55.551 140.568,55.404 141.030 C 55.257 141.492,54.946 142.086,54.712 142.350 C 53.735 143.452,53.333 143.978,53.333 144.155 C 53.333 144.258,52.819 145.105,52.190 146.036 C 51.562 146.968,51.048 148.005,51.048 148.341 C 51.048 148.677,50.915 148.952,50.754 148.952 C 50.499 148.952,50.084 149.684,48.304 153.266 C 48.114 153.648,47.620 154.611,47.205 155.406 C 46.791 156.201,46.376 157.247,46.282 157.731 C 46.189 158.215,45.976 158.709,45.808 158.829 C 45.356 159.153,41.924 167.883,41.490 169.815 C 41.455 169.969,41.372 170.267,41.306 170.476 C 40.736 172.268,39.503 176.687,39.446 177.143 C 39.407 177.457,39.273 177.971,39.148 178.286 C 39.023 178.600,38.917 179.114,38.911 179.429 C 38.899 180.194,38.695 181.059,38.419 181.524 C 38.221 181.856,37.801 184.099,37.491 186.476 C 37.246 188.353,36.992 189.751,36.766 190.464 C 36.631 190.888,36.442 192.136,36.346 193.237 C 36.249 194.337,36.084 196.010,35.978 196.952 C 35.437 201.770,35.240 206.773,35.258 215.238 C 35.277 224.531,35.578 230.553,36.370 237.524 C 36.513 238.781,36.716 240.324,36.822 240.952 C 36.928 241.581,37.102 242.610,37.208 243.238 C 37.314 243.867,37.391 244.724,37.377 245.143 C 37.363 245.562,37.507 246.419,37.696 247.048 C 37.885 247.676,38.128 248.962,38.236 249.905 C 38.471 251.955,39.546 257.048,41.171 263.810 C 41.825 266.533,42.493 269.362,42.655 270.095 C 42.817 270.829,43.139 271.900,43.370 272.476 C 43.602 273.052,43.688 273.524,43.563 273.524 C 43.438 273.524,43.549 273.781,43.810 274.095 C 44.070 274.410,44.186 274.667,44.067 274.667 C 43.948 274.667,44.196 275.652,44.619 276.857 C 45.041 278.062,45.453 279.361,45.535 279.745 C 45.765 280.833,46.115 282.025,46.448 282.857 C 46.616 283.276,47.056 284.562,47.427 285.714 C 47.798 286.867,48.315 288.324,48.575 288.952 C 48.836 289.581,49.529 291.595,50.116 293.429 C 50.702 295.262,51.287 296.762,51.415 296.762 C 51.543 296.762,51.675 297.132,51.709 297.585 C 51.743 298.037,51.909 298.509,52.076 298.632 C 52.244 298.756,52.662 299.629,53.005 300.571 C 54.252 303.995,54.674 304.958,55.048 305.232 C 55.257 305.386,55.290 305.515,55.121 305.518 C 54.952 305.521,55.058 305.995,55.356 306.571 C 55.903 307.630,57.613 311.267,57.729 311.619 C 58.259 313.229,58.821 314.286,59.148 314.286 C 59.372 314.286,59.453 314.388,59.328 314.513 C 59.108 314.734,61.615 319.839,64.736 325.524 C 65.196 326.362,65.667 327.348,65.783 327.714 C 65.899 328.081,66.145 328.381,66.330 328.381 C 66.515 328.381,66.667 328.537,66.667 328.728 C 66.667 329.522,72.103 338.543,72.939 339.137 C 73.156 339.291,73.191 339.420,73.018 339.423 C 72.844 339.426,73.311 340.139,74.054 341.007 C 74.797 341.876,75.314 342.734,75.202 342.915 C 75.091 343.096,75.267 343.346,75.595 343.472 C 75.922 343.598,76.190 343.898,76.190 344.140 C 76.190 344.382,76.576 345.006,77.048 345.528 C 77.519 346.049,78.156 346.962,78.463 347.557 C 78.770 348.151,79.384 349.029,79.828 349.507 C 80.596 350.336,80.910 350.786,82.990 354.032 C 83.482 354.800,84.039 355.429,84.228 355.429 C 84.417 355.429,84.531 355.557,84.482 355.714 C 84.372 356.064,87.472 360.316,88.509 361.238 C 88.922 361.605,89.134 361.905,88.981 361.905 C 88.828 361.905,89.188 362.415,89.780 363.039 C 90.373 363.663,91.200 364.619,91.619 365.162 C 92.810 366.708,95.341 369.608,96.286 370.508 C 96.757 370.958,97.143 371.481,97.143 371.670 C 97.143 372.327,105.968 380.676,109.148 383.027 C 109.983 383.645,110.793 384.331,110.947 384.551 C 111.121 384.801,111.233 384.809,111.244 384.571 C 111.253 384.362,111.436 384.490,111.650 384.857 C 111.863 385.224,112.254 385.524,112.519 385.524 C 112.783 385.524,113.364 385.864,113.810 386.279 C 115.205 387.579,122.734 391.157,125.524 391.846 C 127.100 392.235,127.225 392.272,127.333 392.382 C 127.386 392.435,127.771 392.533,128.190 392.600 C 128.610 392.667,129.611 392.888,130.416 393.091 C 131.863 393.455,141.218 393.399,143.429 393.013 C 144.057 392.903,145.257 392.732,146.095 392.633 C 148.281 392.375,154.009 390.864,154.571 390.397 C 154.833 390.180,155.048 390.106,155.048 390.234 C 155.048 390.362,156.012 390.040,157.190 389.519 C 158.369 388.998,159.462 388.571,159.620 388.571 C 159.779 388.571,160.914 388.105,162.144 387.535 C 163.375 386.964,164.467 386.486,164.571 386.472 C 165.128 386.396,169.442 384.642,170.095 384.226 C 170.514 383.958,171.365 383.614,171.987 383.461 C 172.608 383.308,173.842 382.852,174.728 382.448 C 175.614 382.045,176.563 381.711,176.836 381.706 C 177.110 381.701,178.054 381.370,178.936 380.970 C 179.817 380.570,181.102 380.148,181.793 380.033 C 182.483 379.918,183.476 379.720,184.000 379.594 C 185.846 379.150,188.021 378.737,189.905 378.474 C 190.952 378.327,192.324 378.123,192.952 378.019 C 195.859 377.542,211.526 377.830,212.412 378.378 C 212.605 378.497,213.534 378.641,214.477 378.698 C 215.419 378.755,216.377 378.940,216.605 379.110 C 216.833 379.280,217.647 379.464,218.414 379.519 C 219.181 379.574,219.808 379.762,219.809 379.937 C 219.809 380.111,220.024 380.177,220.286 380.084 C 220.548 379.991,221.238 380.155,221.821 380.449 C 222.403 380.743,223.034 380.888,223.223 380.771 C 223.412 380.655,223.676 380.736,223.810 380.952 C 223.943 381.169,224.212 381.247,224.407 381.127 C 224.602 381.006,224.762 381.118,224.762 381.374 C 224.762 381.631,224.875 381.728,225.013 381.591 C 225.150 381.453,225.493 381.531,225.774 381.764 C 226.056 381.998,226.286 382.077,226.286 381.942 C 226.286 381.806,226.798 381.960,227.425 382.284 C 228.051 382.608,228.694 382.890,228.853 382.911 C 229.313 382.971,230.550 383.471,232.463 384.370 C 233.437 384.828,234.460 385.242,234.736 385.289 C 235.012 385.336,235.795 385.670,236.476 386.031 C 237.157 386.391,237.717 386.553,237.720 386.391 C 237.723 386.228,237.852 386.288,238.006 386.525 C 238.452 387.209,247.062 390.397,251.784 391.627 C 256.763 392.924,267.238 393.530,270.819 392.729 C 271.573 392.561,272.705 392.329,273.333 392.215 C 277.796 391.405,280.000 390.818,280.000 390.438 C 280.000 390.250,280.300 390.093,280.667 390.090 C 281.033 390.088,282.319 389.586,283.524 388.975 C 284.729 388.364,285.714 387.935,285.714 388.022 C 285.714 388.110,286.649 387.583,287.791 386.852 C 288.934 386.122,289.969 385.524,290.093 385.524 C 290.415 385.524,294.473 382.507,295.703 381.353 C 296.274 380.819,297.280 379.952,297.939 379.429 C 299.033 378.560,304.397 373.333,304.195 373.333 C 304.148 373.333,304.899 372.519,305.864 371.524 C 307.938 369.386,309.714 367.322,309.714 367.052 C 309.714 366.946,310.314 366.223,311.048 365.445 C 311.781 364.668,312.381 363.810,312.381 363.540 C 312.381 363.269,312.522 363.048,312.695 363.048 C 312.868 363.048,313.682 362.093,314.505 360.925 C 315.327 359.758,316.214 358.570,316.476 358.286 C 316.738 358.001,316.952 357.648,316.952 357.500 C 316.952 357.353,317.321 356.912,317.773 356.521 C 318.224 356.130,318.472 355.810,318.325 355.810 C 318.177 355.810,318.579 355.252,319.217 354.571 C 319.855 353.890,320.378 353.198,320.379 353.032 C 320.380 352.866,320.555 352.523,320.768 352.270 C 321.824 351.012,323.821 348.190,323.655 348.190 C 323.550 348.190,323.885 347.737,324.399 347.182 C 324.913 346.628,325.333 345.942,325.333 345.659 C 325.333 345.375,325.476 345.143,325.650 345.143 C 325.824 345.143,326.203 344.671,326.493 344.095 C 326.782 343.519,327.754 342.045,328.652 340.819 C 329.551 339.594,330.286 338.365,330.286 338.089 C 330.286 337.813,330.414 337.530,330.571 337.460 C 330.917 337.307,333.714 332.766,333.714 332.359 C 333.714 332.201,334.143 331.510,334.667 330.823 C 335.190 330.137,335.619 329.454,335.619 329.306 C 335.619 329.158,336.100 328.246,336.687 327.280 C 337.274 326.314,337.993 324.924,338.284 324.190 C 338.576 323.457,338.912 322.771,339.031 322.667 C 339.151 322.562,339.651 321.619,340.142 320.571 C 340.634 319.524,341.220 318.324,341.445 317.905 C 342.089 316.706,342.721 315.364,343.418 313.714 C 343.772 312.876,344.542 311.162,345.129 309.905 C 346.521 306.927,347.251 305.022,347.138 304.667 C 347.088 304.510,347.219 304.381,347.429 304.381 C 347.638 304.381,347.810 303.991,347.810 303.513 C 347.810 303.036,348.057 302.292,348.360 301.859 C 348.663 301.427,349.112 300.275,349.358 299.298 C 349.604 298.322,349.984 297.524,350.204 297.524 C 350.424 297.524,350.513 297.434,350.404 297.324 C 350.235 297.155,351.731 292.216,352.550 290.239 C 352.753 289.750,352.028 289.243,349.070 287.803 C 347.015 286.804,345.304 286.053,345.269 286.136 C 345.233 286.218,344.762 285.870,344.221 285.362 C 343.680 284.854,343.238 284.584,343.238 284.762 C 343.238 284.940,342.852 284.750,342.381 284.341 C 340.714 282.893,338.003 281.172,337.765 281.410 C 337.632 281.542,337.524 281.451,337.524 281.206 C 337.524 280.962,337.308 280.762,337.044 280.762 C 336.780 280.762,336.340 280.402,336.065 279.963 C 335.791 279.523,335.474 279.256,335.362 279.369 C 335.249 279.481,334.961 279.409,334.721 279.209 C 328.431 273.953,323.922 269.665,320.762 265.933 C 319.819 264.820,318.576 263.372,317.999 262.716 C 316.337 260.827,316.225 260.664,316.436 260.452 C 316.547 260.342,316.303 260.073,315.894 259.855 C 315.486 259.636,314.936 258.937,314.673 258.300 C 314.409 257.664,314.043 257.143,313.859 257.143 C 313.674 257.143,313.524 256.907,313.524 256.618 C 313.524 256.329,313.269 255.881,312.957 255.623 C 312.645 255.364,312.467 255.026,312.562 254.872 C 312.658 254.718,312.432 254.266,312.061 253.867 C 311.690 253.469,311.329 252.971,311.260 252.762 C 310.924 251.741,309.926 249.905,309.707 249.905 C 309.571 249.905,309.453 249.690,309.444 249.429 C 309.435 249.167,308.741 247.495,307.902 245.714 C 307.063 243.933,306.056 241.533,305.664 240.381 C 305.273 239.229,304.809 238.181,304.634 238.053 C 304.459 237.924,304.345 237.708,304.381 237.571 C 304.549 236.929,303.891 234.286,303.563 234.286 C 303.360 234.286,303.280 234.145,303.387 233.972 C 303.494 233.799,303.263 232.385,302.875 230.829 C 302.487 229.273,302.065 227.337,301.937 226.527 C 301.809 225.717,301.633 224.939,301.547 224.799 C 301.460 224.659,301.279 223.007,301.145 221.129 C 301.010 219.251,300.823 217.236,300.728 216.652 C 300.461 215.010,300.476 204.992,300.748 202.857 C 300.881 201.810,301.048 200.352,301.119 199.619 C 301.190 198.886,301.354 197.686,301.485 196.952 C 301.616 196.219,301.798 195.019,301.890 194.286 C 302.093 192.673,302.318 191.748,304.161 184.952 C 304.217 184.743,304.462 184.089,304.703 183.499 C 304.945 182.909,305.143 182.172,305.143 181.860 C 305.143 181.549,305.484 180.660,305.900 179.885 C 306.317 179.110,307.022 177.619,307.466 176.571 C 309.452 171.895,312.682 166.074,314.855 163.256 C 315.170 162.847,315.429 162.390,315.429 162.241 C 315.429 162.091,315.762 161.569,316.170 161.080 C 316.578 160.591,318.249 158.569,319.884 156.588 C 323.478 152.232,332.786 143.049,334.682 141.988 C 335.368 141.604,340.058 138.193,340.943 137.434 C 341.252 137.169,341.576 137.010,341.662 137.080 C 341.749 137.150,341.952 136.993,342.115 136.730 C 342.511 136.090,340.197 132.559,338.000 130.450 C 337.529 129.997,337.143 129.498,337.143 129.340 C 337.143 129.183,336.457 128.388,335.619 127.575 C 334.781 126.761,334.112 126.053,334.132 126.000 C 334.153 125.948,333.167 124.902,331.942 123.677 C 330.717 122.452,329.714 121.508,329.714 121.581 C 329.714 121.653,329.029 121.078,328.190 120.303 C 324.596 116.979,323.633 116.190,323.164 116.190 C 322.890 116.190,322.667 116.025,322.667 115.823 C 322.667 115.389,317.289 111.805,314.286 110.237 C 313.134 109.635,312.134 109.013,312.063 108.855 C 311.993 108.696,311.778 108.664,311.587 108.782 C 311.395 108.900,311.238 108.806,311.238 108.571 C 311.238 108.337,311.089 108.238,310.906 108.351 C 310.724 108.463,310.187 108.220,309.714 107.810 C 309.241 107.399,308.719 107.147,308.555 107.248 C 308.390 107.350,308.198 107.290,308.128 107.115 C 307.977 106.740,300.893 103.768,300.476 103.905 C 300.319 103.957,300.190 103.810,300.190 103.578 C 300.190 103.346,299.939 103.253,299.631 103.371 C 299.324 103.489,298.974 103.426,298.853 103.232 C 298.668 102.933,296.327 102.094,295.048 101.869 C 294.838 101.832,294.581 101.770,294.476 101.730 C 294.371 101.690,293.857 101.583,293.333 101.492 C 292.810 101.401,291.952 101.164,291.429 100.964 C 289.877 100.374,285.909 99.439,284.130 99.246 C 283.221 99.147,282.048 98.964,281.524 98.840 C 281.000 98.716,279.971 98.552,279.238 98.476 C 278.505 98.400,277.476 98.228,276.952 98.094 C 275.898 97.824,257.752 97.429,257.495 97.670 " stroke="none" fill="#a09c9c" fill-rule="evenodd"></path><path id="path3" d="M217.696 28.667 L 216.190 30.286 217.810 28.780 C 219.315 27.379,219.604 27.048,219.315 27.048 C 219.253 27.048,218.525 27.776,217.696 28.667 " stroke="none" fill="#9ca4a0" fill-rule="evenodd"></path><path id="path4" d="" stroke="none" fill="#9c9ca4" fill-rule="evenodd"></path></g></svg>