<svg id="svg" version="1.1" xmlns="http://www.w3.org/2000/svg" xmlns:xlink="http://www.w3.org/1999/xlink" width="400" height="400" viewBox="0, 0, 400,400"><g id="svgg"><path id="path0" d="M199.200 34.400 C 199.200 34.933,198.933 35.200,198.400 35.200 C 197.867 35.200,197.600 35.467,197.600 36.000 C 197.600 36.533,197.333 36.800,196.800 36.800 C 196.267 36.800,196.000 37.067,196.000 37.600 C 196.000 38.133,195.733 38.400,195.200 38.400 C 194.533 38.400,194.400 38.667,194.400 40.000 C 194.400 41.333,194.267 41.600,193.600 41.600 C 192.952 41.600,192.800 41.867,192.800 43.000 C 192.800 43.978,192.619 44.400,192.200 44.400 C 191.867 44.400,191.600 44.756,191.600 45.200 C 191.600 45.733,191.333 46.000,190.800 46.000 C 190.133 46.000,190.000 46.267,190.000 47.600 C 190.000 48.933,189.867 49.200,189.200 49.200 C 188.667 49.200,188.400 49.467,188.400 50.000 C 188.400 50.533,188.133 50.800,187.600 50.800 C 186.933 50.800,186.800 51.067,186.800 52.400 C 186.800 53.733,186.667 54.000,186.000 54.000 C 185.333 54.000,185.200 54.267,185.200 55.600 C 185.200 56.933,185.067 57.200,184.400 57.200 C 183.935 57.200,183.600 57.467,183.600 57.837 C 183.600 58.188,183.240 58.569,182.800 58.684 C 182.199 58.841,182.000 59.230,182.000 60.247 C 182.000 61.333,181.842 61.600,181.200 61.600 C 180.533 61.600,180.400 61.867,180.400 63.200 C 180.400 64.533,180.267 64.800,179.600 64.800 C 179.083 64.800,178.800 65.067,178.800 65.553 C 178.800 65.970,178.443 66.400,178.000 66.516 C 177.387 66.676,177.200 67.062,177.200 68.163 C 177.200 69.333,177.052 69.600,176.400 69.600 C 175.733 69.600,175.600 69.867,175.600 71.200 C 175.600 72.356,175.433 72.800,175.000 72.800 C 174.667 72.800,174.400 73.156,174.400 73.600 C 174.400 74.133,174.133 74.400,173.600 74.400 C 172.952 74.400,172.800 74.667,172.800 75.800 C 172.800 76.933,172.648 77.200,172.000 77.200 C 171.455 77.200,171.200 77.467,171.200 78.037 C 171.200 78.538,170.879 78.959,170.400 79.084 C 169.799 79.241,169.600 79.630,169.600 80.647 C 169.600 81.733,169.442 82.000,168.800 82.000 C 168.133 82.000,168.000 82.267,168.000 83.600 C 168.000 84.933,167.867 85.200,167.200 85.200 C 166.667 85.200,166.400 85.467,166.400 86.000 C 166.400 86.533,166.133 86.800,165.600 86.800 C 164.933 86.800,164.800 87.067,164.800 88.400 C 164.800 89.733,164.667 90.000,164.000 90.000 C 163.358 90.000,163.200 90.267,163.200 91.353 C 163.200 92.370,163.001 92.759,162.400 92.916 C 161.921 93.041,161.600 93.462,161.600 93.963 C 161.600 94.429,161.342 94.800,161.018 94.800 C 160.670 94.800,160.331 95.362,160.174 96.200 C 160.029 96.970,159.680 97.600,159.398 97.600 C 158.794 97.600,158.400 98.482,158.400 99.833 C 158.400 100.426,158.168 100.800,157.800 100.800 C 157.467 100.800,157.200 101.156,157.200 101.600 C 157.200 102.133,156.933 102.400,156.400 102.400 C 155.733 102.400,155.600 102.667,155.600 104.000 C 155.600 105.333,155.467 105.600,154.800 105.600 C 154.155 105.600,154.000 105.867,154.000 106.973 C 154.000 107.995,153.795 108.411,153.200 108.600 C 152.760 108.740,152.400 109.091,152.400 109.380 C 152.400 109.670,152.040 110.001,151.600 110.116 C 150.987 110.276,150.800 110.662,150.800 111.763 C 150.800 112.933,150.652 113.200,150.000 113.200 C 149.483 113.200,149.200 113.467,149.200 113.953 C 149.200 114.370,148.843 114.800,148.400 114.916 C 147.787 115.076,147.600 115.462,147.600 116.563 C 147.600 117.733,147.452 118.000,146.800 118.000 C 146.133 118.000,146.000 118.267,146.000 119.600 C 146.000 120.933,145.867 121.200,145.200 121.200 C 144.533 121.200,144.400 121.467,144.400 122.800 C 144.400 124.133,144.267 124.400,143.600 124.400 C 143.156 124.400,142.800 124.667,142.800 125.000 C 142.800 125.330,142.530 125.600,142.200 125.600 C 141.767 125.600,141.600 126.044,141.600 127.200 C 141.600 128.533,141.467 128.800,140.800 128.800 C 140.267 128.800,140.000 129.067,140.000 129.600 C 140.000 130.133,139.733 130.400,139.200 130.400 C 138.533 130.400,138.400 130.667,138.400 132.000 C 138.400 133.333,138.267 133.600,137.600 133.600 C 136.933 133.600,136.800 133.867,136.800 135.200 C 136.800 136.533,136.667 136.800,136.000 136.800 C 135.467 136.800,135.200 137.067,135.200 137.600 C 135.200 138.133,134.933 138.400,134.400 138.400 C 133.733 138.400,133.600 138.667,133.600 140.000 C 133.600 141.333,133.467 141.600,132.800 141.600 C 132.152 141.600,132.000 141.867,132.000 143.000 C 132.000 144.133,131.848 144.400,131.200 144.400 C 130.667 144.400,130.400 144.667,130.400 145.200 C 130.400 145.733,130.133 146.000,129.600 146.000 C 128.933 146.000,128.800 146.267,128.800 147.600 C 128.800 148.933,128.667 149.200,128.000 149.200 C 127.333 149.200,127.200 149.467,127.200 150.800 C 127.200 151.997,127.040 152.400,126.563 152.400 C 126.212 152.400,125.831 152.760,125.716 153.200 C 125.601 153.640,125.258 154.000,124.953 154.000 C 124.574 154.000,124.400 154.504,124.400 155.600 C 124.400 156.933,124.267 157.200,123.600 157.200 C 122.952 157.200,122.800 157.467,122.800 158.600 C 122.800 159.733,122.648 160.000,122.000 160.000 C 121.467 160.000,121.200 160.267,121.200 160.800 C 121.200 161.333,120.933 161.600,120.400 161.600 C 119.733 161.600,119.600 161.867,119.600 163.200 C 119.600 164.533,119.467 164.800,118.800 164.800 C 118.133 164.800,118.000 165.067,118.000 166.400 C 118.000 167.733,117.867 168.000,117.200 168.000 C 116.667 168.000,116.400 168.267,116.400 168.800 C 116.400 169.333,116.133 169.600,115.600 169.600 C 114.933 169.600,114.800 169.867,114.800 171.200 C 114.800 172.533,114.667 172.800,114.000 172.800 C 113.352 172.800,113.200 173.067,113.200 174.200 C 113.200 175.214,113.024 175.600,112.563 175.600 C 112.212 175.600,111.835 175.943,111.726 176.363 C 111.616 176.783,111.183 177.216,110.763 177.326 C 110.191 177.475,110.000 177.885,110.000 178.963 C 110.000 179.944,109.818 180.400,109.427 180.400 C 109.112 180.400,108.740 180.760,108.600 181.200 C 108.460 181.640,108.088 182.000,107.773 182.000 C 107.371 182.000,107.200 182.478,107.200 183.600 C 107.200 184.933,107.067 185.200,106.400 185.200 C 105.733 185.200,105.600 185.467,105.600 186.800 C 105.600 188.133,105.467 188.400,104.800 188.400 C 104.267 188.400,104.000 188.667,104.000 189.200 C 104.000 189.733,103.733 190.000,103.200 190.000 C 102.552 190.000,102.400 190.267,102.400 191.400 C 102.400 192.533,102.248 192.800,101.600 192.800 C 100.933 192.800,100.800 193.067,100.800 194.400 C 100.800 195.733,100.667 196.000,100.000 196.000 C 99.467 196.000,99.200 196.267,99.200 196.800 C 99.200 197.333,98.933 197.600,98.400 197.600 C 97.733 197.600,97.600 197.867,97.600 199.200 C 97.600 200.533,97.467 200.800,96.800 200.800 C 96.133 200.800,96.000 201.067,96.000 202.400 C 96.000 203.733,95.867 204.000,95.200 204.000 C 94.667 204.000,94.400 204.267,94.400 204.800 C 94.400 205.240,94.138 205.600,93.818 205.600 C 93.472 205.600,93.132 206.156,92.979 206.972 C 92.837 207.727,92.469 208.441,92.161 208.560 C 91.826 208.688,91.600 209.345,91.600 210.187 C 91.600 211.333,91.449 211.600,90.800 211.600 C 90.267 211.600,90.000 211.867,90.000 212.400 C 90.000 212.933,89.733 213.200,89.200 213.200 C 88.533 213.200,88.400 213.467,88.400 214.800 C 88.400 216.133,88.267 216.400,87.600 216.400 C 86.933 216.400,86.800 216.667,86.800 218.000 C 86.800 219.333,86.667 219.600,86.000 219.600 C 85.467 219.600,85.200 219.867,85.200 220.400 C 85.200 220.933,84.933 221.200,84.400 221.200 C 83.733 221.200,83.600 221.467,83.600 222.800 C 83.600 224.133,83.467 224.400,82.800 224.400 C 82.267 224.400,82.000 224.667,82.000 225.200 C 82.000 225.733,81.733 226.000,81.200 226.000 C 80.552 226.000,80.400 226.267,80.400 227.400 C 80.400 228.533,80.248 228.800,79.600 228.800 C 78.933 228.800,78.800 229.067,78.800 230.400 C 78.800 231.733,78.667 232.000,78.000 232.000 C 77.337 232.000,77.200 232.267,77.200 233.553 C 77.200 234.770,77.027 235.152,76.400 235.316 C 75.960 235.431,75.600 235.812,75.600 236.163 C 75.600 236.513,75.330 236.800,75.000 236.800 C 74.567 236.800,74.400 237.244,74.400 238.400 C 74.400 239.733,74.267 240.000,73.600 240.000 C 73.067 240.000,72.800 240.267,72.800 240.800 C 72.800 241.333,72.533 241.600,72.000 241.600 C 71.352 241.600,71.200 241.867,71.200 243.000 C 71.200 244.133,71.048 244.400,70.400 244.400 C 69.733 244.400,69.600 244.667,69.600 246.000 C 69.600 247.333,69.467 247.600,68.800 247.600 C 68.267 247.600,68.000 247.867,68.000 248.400 C 68.000 248.933,67.733 249.200,67.200 249.200 C 66.533 249.200,66.400 249.467,66.400 250.800 C 66.400 252.133,66.267 252.400,65.600 252.400 C 64.933 252.400,64.800 252.667,64.800 254.000 C 64.800 255.333,64.667 255.600,64.000 255.600 C 63.467 255.600,63.200 255.867,63.200 256.400 C 63.200 256.933,62.933 257.200,62.400 257.200 C 61.758 257.200,61.600 257.467,61.600 258.553 C 61.600 259.570,61.401 259.959,60.800 260.116 C 60.187 260.276,60.000 260.662,60.000 261.763 C 60.000 262.744,59.818 263.200,59.427 263.200 C 59.112 263.200,58.740 263.560,58.600 264.000 C 58.460 264.440,58.088 264.800,57.773 264.800 C 57.371 264.800,57.200 265.278,57.200 266.400 C 57.200 267.733,57.067 268.000,56.400 268.000 C 55.867 268.000,55.600 268.267,55.600 268.800 C 55.600 269.333,55.333 269.600,54.800 269.600 C 54.133 269.600,54.000 269.867,54.000 271.200 C 54.000 272.533,53.867 272.800,53.200 272.800 C 52.558 272.800,52.400 273.067,52.400 274.153 C 52.400 275.170,52.201 275.559,51.600 275.716 C 51.140 275.836,50.800 276.262,50.800 276.716 C 50.800 277.170,50.460 277.596,50.000 277.716 C 49.417 277.868,49.200 278.262,49.200 279.163 C 49.200 280.133,49.028 280.400,48.400 280.400 C 47.733 280.400,47.600 280.667,47.600 282.000 C 47.600 283.333,47.467 283.600,46.800 283.600 C 46.267 283.600,46.000 283.867,46.000 284.400 C 46.000 284.933,45.733 285.200,45.200 285.200 C 44.533 285.200,44.400 285.467,44.400 286.800 C 44.400 288.133,44.267 288.400,43.600 288.400 C 42.933 288.400,42.800 288.667,42.800 290.000 C 42.800 291.156,42.633 291.600,42.200 291.600 C 41.870 291.600,41.600 291.870,41.600 292.200 C 41.600 292.533,41.244 292.800,40.800 292.800 C 40.133 292.800,40.000 293.067,40.000 294.400 C 40.000 295.733,39.867 296.000,39.200 296.000 C 38.533 296.000,38.400 296.267,38.400 297.600 C 38.400 298.933,38.267 299.200,37.600 299.200 C 37.067 299.200,36.800 299.467,36.800 300.000 C 36.800 300.533,36.533 300.800,36.000 300.800 C 35.333 300.800,35.200 301.067,35.200 302.400 C 35.200 303.733,35.067 304.000,34.400 304.000 C 33.733 304.000,33.600 304.267,33.600 305.600 C 33.600 306.933,33.467 307.200,32.800 307.200 C 32.360 307.200,32.000 307.458,32.000 307.773 C 32.000 308.088,31.640 308.460,31.200 308.600 C 30.605 308.789,30.400 309.205,30.400 310.227 C 30.400 311.333,30.245 311.600,29.600 311.600 C 29.063 311.600,28.800 311.867,28.800 312.413 C 28.800 312.859,28.535 313.327,28.211 313.451 C 27.887 313.576,27.510 314.273,27.373 315.002 C 27.217 315.836,26.842 316.400,26.362 316.526 C 25.791 316.675,25.600 317.085,25.600 318.163 C 25.600 319.174,25.422 319.600,25.000 319.600 C 24.667 319.600,24.400 319.956,24.400 320.400 C 24.400 320.933,24.133 321.200,23.600 321.200 C 22.933 321.200,22.800 321.467,22.800 322.800 C 22.800 324.133,22.667 324.400,22.000 324.400 C 21.352 324.400,21.200 324.667,21.200 325.800 C 21.200 326.933,21.048 327.200,20.400 327.200 C 19.867 327.200,19.600 327.467,19.600 328.000 C 19.600 328.533,19.333 328.800,18.800 328.800 C 18.133 328.800,18.000 329.067,18.000 330.400 C 18.000 331.733,17.867 332.000,17.200 332.000 C 16.533 332.000,16.400 332.267,16.400 333.600 C 16.400 334.933,16.267 335.200,15.600 335.200 C 15.067 335.200,14.800 335.467,14.800 336.000 C 14.800 336.533,14.533 336.800,14.000 336.800 C 13.333 336.800,13.200 337.067,13.200 338.400 C 13.200 339.733,13.067 340.000,12.400 340.000 C 11.758 340.000,11.600 340.267,11.600 341.353 C 11.600 342.370,11.401 342.759,10.800 342.916 C 10.360 343.031,10.000 343.412,10.000 343.763 C 10.000 344.113,9.730 344.400,9.400 344.400 C 9.032 344.400,8.800 344.774,8.800 345.367 C 8.800 346.748,8.402 347.600,7.757 347.600 C 7.451 347.600,7.200 347.960,7.200 348.400 C 7.200 348.933,6.933 349.200,6.400 349.200 C 5.733 349.200,5.600 349.467,5.600 350.800 C 5.600 352.133,5.467 352.400,4.800 352.400 C 4.133 352.400,4.000 352.667,4.000 354.000 C 4.000 355.333,3.867 355.600,3.200 355.600 C 2.555 355.600,2.400 355.867,2.400 356.973 C 2.400 357.995,2.195 358.411,1.600 358.600 C 1.160 358.740,0.800 359.112,0.800 359.427 C 0.800 359.742,0.620 360.000,0.400 360.000 C 0.178 360.000,0.000 361.067,0.000 362.400 L 0.000 364.800 200.000 364.800 L 400.000 364.800 400.000 363.200 C 400.000 362.320,399.820 361.600,399.600 361.600 C 399.380 361.600,399.200 360.982,399.200 360.227 C 399.200 359.205,398.995 358.789,398.400 358.600 C 397.890 358.438,397.600 357.995,397.600 357.376 C 397.600 356.840,397.243 356.184,396.800 355.907 C 396.360 355.632,396.000 355.091,396.000 354.704 C 396.000 354.267,395.697 354.000,395.200 354.000 C 394.533 354.000,394.400 353.733,394.400 352.400 C 394.400 351.067,394.267 350.800,393.600 350.800 C 393.067 350.800,392.800 350.533,392.800 350.000 C 392.800 349.556,392.533 349.200,392.200 349.200 C 391.778 349.200,391.600 348.774,391.600 347.763 C 391.600 346.662,391.413 346.276,390.800 346.116 C 390.194 345.957,390.000 345.570,390.000 344.516 C 390.000 343.462,389.806 343.075,389.200 342.916 C 388.760 342.801,388.400 342.458,388.400 342.153 C 388.400 341.849,388.040 341.600,387.600 341.600 C 386.933 341.600,386.800 341.333,386.800 340.000 C 386.800 338.667,386.667 338.400,386.000 338.400 C 385.333 338.400,385.200 338.133,385.200 336.800 C 385.200 335.467,385.067 335.200,384.400 335.200 C 383.778 335.200,383.600 334.933,383.600 334.003 C 383.600 333.240,383.310 332.626,382.800 332.307 C 382.360 332.032,382.000 331.491,382.000 331.104 C 382.000 330.667,381.697 330.400,381.200 330.400 C 380.533 330.400,380.400 330.133,380.400 328.800 C 380.400 327.467,380.267 327.200,379.600 327.200 C 379.067 327.200,378.800 326.933,378.800 326.400 C 378.800 325.867,378.533 325.600,378.000 325.600 C 377.352 325.600,377.200 325.333,377.200 324.200 C 377.200 323.067,377.048 322.800,376.400 322.800 C 375.733 322.800,375.600 322.533,375.600 321.200 C 375.600 320.101,375.426 319.600,375.045 319.600 C 374.725 319.600,374.376 318.997,374.222 318.179 C 374.076 317.397,373.696 316.658,373.378 316.536 C 373.060 316.414,372.800 315.974,372.800 315.557 C 372.800 315.067,372.518 314.800,372.000 314.800 C 371.348 314.800,371.200 314.533,371.200 313.363 C 371.200 312.262,371.013 311.876,370.400 311.716 C 369.957 311.600,369.600 311.170,369.600 310.753 C 369.600 310.267,369.317 310.000,368.800 310.000 C 368.152 310.000,368.000 309.733,368.000 308.600 C 368.000 307.467,367.848 307.200,367.200 307.200 C 366.533 307.200,366.400 306.933,366.400 305.600 C 366.400 304.267,366.267 304.000,365.600 304.000 C 365.067 304.000,364.800 303.733,364.800 303.200 C 364.800 302.667,364.533 302.400,364.000 302.400 C 363.333 302.400,363.200 302.133,363.200 300.800 C 363.200 299.467,363.067 299.200,362.400 299.200 C 361.733 299.200,361.600 298.933,361.600 297.600 C 361.600 296.267,361.467 296.000,360.800 296.000 C 360.267 296.000,360.000 295.733,360.000 295.200 C 360.000 294.667,359.733 294.400,359.200 294.400 C 358.552 294.400,358.400 294.133,358.400 293.000 C 358.400 292.022,358.219 291.600,357.800 291.600 C 357.367 291.600,357.200 291.156,357.200 290.000 C 357.200 288.667,357.067 288.400,356.400 288.400 C 355.867 288.400,355.600 288.133,355.600 287.600 C 355.600 287.067,355.333 286.800,354.800 286.800 C 354.133 286.800,354.000 286.533,354.000 285.200 C 354.000 283.867,353.867 283.600,353.200 283.600 C 352.533 283.600,352.400 283.333,352.400 282.000 C 352.400 280.667,352.267 280.400,351.600 280.400 C 351.067 280.400,350.800 280.133,350.800 279.600 C 350.800 279.067,350.533 278.800,350.000 278.800 C 349.348 278.800,349.200 278.533,349.200 277.363 C 349.200 276.262,349.013 275.876,348.400 275.716 C 347.799 275.559,347.600 275.170,347.600 274.153 C 347.600 273.067,347.442 272.800,346.800 272.800 C 346.178 272.800,346.000 272.533,346.000 271.603 C 346.000 270.840,345.710 270.226,345.200 269.907 C 344.760 269.632,344.400 269.091,344.400 268.704 C 344.400 268.267,344.097 268.000,343.600 268.000 C 342.933 268.000,342.800 267.733,342.800 266.400 C 342.800 265.304,342.626 264.800,342.247 264.800 C 341.942 264.800,341.599 264.440,341.484 264.000 C 341.369 263.560,340.988 263.200,340.637 263.200 C 340.172 263.200,340.000 262.811,340.000 261.763 C 340.000 260.662,339.813 260.276,339.200 260.116 C 338.599 259.959,338.400 259.570,338.400 258.553 C 338.400 257.493,338.236 257.200,337.645 257.200 C 337.096 257.200,336.816 256.811,336.622 255.779 C 336.476 254.997,336.096 254.258,335.778 254.136 C 335.460 254.014,335.200 253.574,335.200 253.157 C 335.200 252.667,334.918 252.400,334.400 252.400 C 333.733 252.400,333.600 252.133,333.600 250.800 C 333.600 249.467,333.467 249.200,332.800 249.200 C 332.267 249.200,332.000 248.933,332.000 248.400 C 332.000 247.867,331.733 247.600,331.200 247.600 C 330.533 247.600,330.400 247.333,330.400 246.000 C 330.400 244.667,330.267 244.400,329.600 244.400 C 328.952 244.400,328.800 244.133,328.800 243.000 C 328.800 241.867,328.648 241.600,328.000 241.600 C 327.467 241.600,327.200 241.333,327.200 240.800 C 327.200 240.267,326.933 240.000,326.400 240.000 C 325.733 240.000,325.600 239.733,325.600 238.400 C 325.600 237.244,325.433 236.800,325.000 236.800 C 324.578 236.800,324.400 236.374,324.400 235.363 C 324.400 234.262,324.213 233.876,323.600 233.716 C 323.157 233.600,322.800 233.170,322.800 232.753 C 322.800 232.267,322.517 232.000,322.000 232.000 C 321.333 232.000,321.200 231.733,321.200 230.400 C 321.200 229.067,321.067 228.800,320.400 228.800 C 319.748 228.800,319.600 228.533,319.600 227.363 C 319.600 226.262,319.413 225.876,318.800 225.716 C 318.360 225.601,318.000 225.258,318.000 224.953 C 318.000 224.649,317.640 224.400,317.200 224.400 C 316.533 224.400,316.400 224.133,316.400 222.800 C 316.400 221.467,316.267 221.200,315.600 221.200 C 314.933 221.200,314.800 220.933,314.800 219.600 C 314.800 218.267,314.667 218.000,314.000 218.000 C 313.355 218.000,313.200 217.733,313.200 216.627 C 313.200 215.605,312.995 215.189,312.400 215.000 C 311.960 214.860,311.600 214.398,311.600 213.973 C 311.600 213.467,311.324 213.200,310.800 213.200 C 310.133 213.200,310.000 212.933,310.000 211.600 C 310.000 210.267,309.867 210.000,309.200 210.000 C 308.748 210.000,308.400 209.733,308.400 209.387 C 308.400 209.051,308.130 208.671,307.800 208.545 C 307.430 208.403,307.200 207.795,307.200 206.957 C 307.200 205.867,307.043 205.600,306.400 205.600 C 305.733 205.600,305.600 205.333,305.600 204.000 C 305.600 202.667,305.467 202.400,304.800 202.400 C 304.267 202.400,304.000 202.133,304.000 201.600 C 304.000 201.067,303.733 200.800,303.200 200.800 C 302.533 200.800,302.400 200.533,302.400 199.200 C 302.400 197.867,302.267 197.600,301.600 197.600 C 300.948 197.600,300.800 197.333,300.800 196.163 C 300.800 195.062,300.613 194.676,300.000 194.516 C 299.557 194.400,299.200 193.970,299.200 193.553 C 299.200 193.067,298.917 192.800,298.400 192.800 C 297.752 192.800,297.600 192.533,297.600 191.400 C 297.600 190.267,297.448 190.000,296.800 190.000 C 296.133 190.000,296.000 189.733,296.000 188.400 C 296.000 187.067,295.867 186.800,295.200 186.800 C 294.667 186.800,294.400 186.533,294.400 186.000 C 294.400 185.467,294.133 185.200,293.600 185.200 C 292.933 185.200,292.800 184.933,292.800 183.600 C 292.800 182.444,292.633 182.000,292.200 182.000 C 291.778 182.000,291.600 181.574,291.600 180.563 C 291.600 179.485,291.409 179.075,290.837 178.926 C 290.417 178.816,289.984 178.383,289.874 177.963 C 289.765 177.543,289.388 177.200,289.037 177.200 C 288.576 177.200,288.400 176.814,288.400 175.800 C 288.400 174.694,288.241 174.400,287.645 174.400 C 287.096 174.400,286.816 174.011,286.622 172.979 C 286.476 172.197,286.096 171.458,285.778 171.336 C 285.460 171.214,285.200 170.774,285.200 170.357 C 285.200 169.867,284.918 169.600,284.400 169.600 C 283.733 169.600,283.600 169.333,283.600 168.000 C 283.600 166.667,283.467 166.400,282.800 166.400 C 282.133 166.400,282.000 166.133,282.000 164.800 C 282.000 163.467,281.867 163.200,281.200 163.200 C 280.667 163.200,280.400 162.933,280.400 162.400 C 280.400 161.867,280.133 161.600,279.600 161.600 C 278.955 161.600,278.800 161.333,278.800 160.227 C 278.800 159.205,278.595 158.789,278.000 158.600 C 277.405 158.411,277.200 157.995,277.200 156.973 C 277.200 155.867,277.045 155.600,276.400 155.600 C 275.867 155.600,275.600 155.333,275.600 154.800 C 275.600 154.356,275.333 154.000,275.000 154.000 C 274.567 154.000,274.400 153.556,274.400 152.400 C 274.400 151.067,274.267 150.800,273.600 150.800 C 272.933 150.800,272.800 150.533,272.800 149.200 C 272.800 147.867,272.667 147.600,272.000 147.600 C 271.467 147.600,271.200 147.333,271.200 146.800 C 271.200 146.267,270.933 146.000,270.400 146.000 C 269.748 146.000,269.600 145.733,269.600 144.563 C 269.600 143.462,269.413 143.076,268.800 142.916 C 268.199 142.759,268.000 142.370,268.000 141.353 C 268.000 140.267,267.842 140.000,267.200 140.000 C 266.667 140.000,266.400 139.733,266.400 139.200 C 266.400 138.667,266.133 138.400,265.600 138.400 C 264.933 138.400,264.800 138.133,264.800 136.800 C 264.800 135.467,264.667 135.200,264.000 135.200 C 263.467 135.200,263.200 134.933,263.200 134.400 C 263.200 133.867,262.933 133.600,262.400 133.600 C 261.733 133.600,261.600 133.333,261.600 132.000 C 261.600 130.667,261.467 130.400,260.800 130.400 C 260.133 130.400,260.000 130.133,260.000 128.800 C 260.000 127.467,259.867 127.200,259.200 127.200 C 258.552 127.200,258.400 126.933,258.400 125.800 C 258.400 124.822,258.219 124.400,257.800 124.400 C 257.467 124.400,257.200 124.044,257.200 123.600 C 257.200 123.067,256.933 122.800,256.400 122.800 C 255.733 122.800,255.600 122.533,255.600 121.200 C 255.600 119.867,255.467 119.600,254.800 119.600 C 254.148 119.600,254.000 119.333,254.000 118.163 C 254.000 117.062,253.813 116.676,253.200 116.516 C 252.757 116.400,252.400 115.970,252.400 115.553 C 252.400 115.067,252.117 114.800,251.600 114.800 C 250.933 114.800,250.800 114.533,250.800 113.200 C 250.800 111.867,250.667 111.600,250.000 111.600 C 249.467 111.600,249.200 111.333,249.200 110.800 C 249.200 110.267,248.933 110.000,248.400 110.000 C 247.752 110.000,247.600 109.733,247.600 108.600 C 247.600 107.467,247.448 107.200,246.800 107.200 C 246.133 107.200,246.000 106.933,246.000 105.600 C 246.000 104.267,245.867 104.000,245.200 104.000 C 244.667 104.000,244.400 103.733,244.400 103.200 C 244.400 102.667,244.133 102.400,243.600 102.400 C 242.933 102.400,242.800 102.133,242.800 100.800 C 242.800 99.644,242.633 99.200,242.200 99.200 C 241.778 99.200,241.600 98.774,241.600 97.763 C 241.600 96.685,241.409 96.275,240.837 96.126 C 240.417 96.016,239.984 95.583,239.874 95.163 C 239.765 94.743,239.388 94.400,239.037 94.400 C 238.576 94.400,238.400 94.014,238.400 93.000 C 238.400 91.867,238.248 91.600,237.600 91.600 C 236.933 91.600,236.800 91.333,236.800 90.000 C 236.800 88.698,236.659 88.400,236.045 88.400 C 235.502 88.400,235.217 88.016,235.034 87.039 C 234.893 86.290,234.513 85.576,234.189 85.451 C 233.865 85.327,233.600 84.859,233.600 84.413 C 233.600 83.867,233.337 83.600,232.800 83.600 C 232.133 83.600,232.000 83.333,232.000 82.000 C 232.000 80.667,231.867 80.400,231.200 80.400 C 230.667 80.400,230.400 80.133,230.400 79.600 C 230.400 79.067,230.133 78.800,229.600 78.800 C 228.933 78.800,228.800 78.533,228.800 77.200 C 228.800 75.867,228.667 75.600,228.000 75.600 C 227.352 75.600,227.200 75.333,227.200 74.200 C 227.200 73.067,227.048 72.800,226.400 72.800 C 225.867 72.800,225.600 72.533,225.600 72.000 C 225.600 71.556,225.333 71.200,225.000 71.200 C 224.567 71.200,224.400 70.756,224.400 69.600 C 224.400 68.267,224.267 68.000,223.600 68.000 C 223.067 68.000,222.800 67.733,222.800 67.200 C 222.800 66.667,222.533 66.400,222.000 66.400 C 221.333 66.400,221.200 66.133,221.200 64.800 C 221.200 63.467,221.067 63.200,220.400 63.200 C 219.748 63.200,219.600 62.933,219.600 61.763 C 219.600 60.662,219.413 60.276,218.800 60.116 C 218.360 60.001,218.000 59.670,218.000 59.380 C 218.000 59.091,217.640 58.740,217.200 58.600 C 216.605 58.411,216.400 57.995,216.400 56.973 C 216.400 55.867,216.245 55.600,215.600 55.600 C 214.933 55.600,214.800 55.333,214.800 54.000 C 214.800 52.667,214.667 52.400,214.000 52.400 C 213.467 52.400,213.200 52.133,213.200 51.600 C 213.200 51.067,212.933 50.800,212.400 50.800 C 211.733 50.800,211.600 50.533,211.600 49.200 C 211.600 47.867,211.467 47.600,210.800 47.600 C 210.155 47.600,210.000 47.333,210.000 46.227 C 210.000 45.205,209.795 44.789,209.200 44.600 C 208.760 44.460,208.400 43.998,208.400 43.573 C 208.400 43.148,208.130 42.800,207.800 42.800 C 207.381 42.800,207.200 42.378,207.200 41.400 C 207.200 40.267,207.048 40.000,206.400 40.000 C 205.867 40.000,205.600 39.733,205.600 39.200 C 205.600 38.667,205.333 38.400,204.800 38.400 C 204.133 38.400,204.000 38.133,204.000 36.800 C 204.000 35.467,203.867 35.200,203.200 35.200 C 202.667 35.200,202.400 34.933,202.400 34.400 C 202.400 33.733,202.133 33.600,200.800 33.600 C 199.467 33.600,199.200 33.733,199.200 34.400 M240.000 172.000 C 240.000 172.728,240.267 172.800,242.953 172.800 C 245.570 172.800,245.931 172.891,246.116 173.600 C 246.294 174.280,246.662 174.400,248.563 174.400 C 250.285 174.400,250.800 174.538,250.800 175.000 C 250.800 175.333,251.156 175.600,251.600 175.600 C 252.133 175.600,252.400 175.867,252.400 176.400 C 252.400 177.067,252.667 177.200,254.000 177.200 C 255.333 177.200,255.600 177.333,255.600 178.000 C 255.600 178.645,255.867 178.800,256.973 178.800 C 257.995 178.800,258.411 179.005,258.600 179.600 C 258.740 180.040,259.112 180.400,259.427 180.400 C 259.742 180.400,260.000 180.760,260.000 181.200 C 260.000 181.733,260.267 182.000,260.800 182.000 C 261.333 182.000,261.600 182.267,261.600 182.800 C 261.600 183.333,261.867 183.600,262.400 183.600 C 262.933 183.600,263.200 183.867,263.200 184.400 C 263.200 184.987,263.467 185.200,264.200 185.200 C 264.822 185.200,265.200 185.427,265.200 185.800 C 265.200 186.130,265.470 186.400,265.800 186.400 C 266.173 186.400,266.400 186.778,266.400 187.400 C 266.400 188.133,266.613 188.400,267.200 188.400 C 267.733 188.400,268.000 188.667,268.000 189.200 C 268.000 189.733,268.267 190.000,268.800 190.000 C 269.333 190.000,269.600 190.267,269.600 190.800 C 269.600 191.333,269.867 191.600,270.400 191.600 C 271.048 191.600,271.200 191.867,271.200 193.000 C 271.200 194.133,271.352 194.400,272.000 194.400 C 272.667 194.400,272.800 194.667,272.800 196.000 C 272.800 197.333,272.933 197.600,273.600 197.600 C 274.267 197.600,274.400 197.867,274.400 199.200 C 274.400 200.356,274.567 200.800,275.000 200.800 C 275.462 200.800,275.600 201.315,275.600 203.037 C 275.600 204.938,275.720 205.306,276.400 205.484 C 277.631 205.806,277.631 230.026,276.400 231.600 C 275.854 232.298,275.615 233.234,275.609 234.700 C 275.602 236.296,275.456 236.800,275.000 236.800 C 274.520 236.800,274.400 237.400,274.400 239.800 C 274.400 242.533,274.329 242.800,273.600 242.800 C 272.853 242.800,272.800 243.067,272.800 246.800 C 272.800 250.533,272.853 250.800,273.600 250.800 C 274.267 250.800,274.400 251.067,274.400 252.400 C 274.400 253.499,274.574 254.000,274.955 254.000 C 275.275 254.000,275.624 254.603,275.778 255.421 C 275.924 256.203,276.304 256.942,276.622 257.064 C 276.969 257.197,277.200 257.828,277.200 258.643 C 277.200 259.733,277.357 260.000,278.000 260.000 C 278.579 260.000,278.800 260.267,278.800 260.967 C 278.800 262.348,279.198 263.200,279.843 263.200 C 280.226 263.200,280.400 263.699,280.400 264.800 C 280.400 266.133,280.533 266.400,281.200 266.400 C 281.932 266.400,282.000 266.667,282.000 269.553 C 282.000 272.370,282.085 272.729,282.800 272.916 C 283.555 273.113,283.600 273.462,283.600 279.163 C 283.600 284.933,283.565 285.200,282.800 285.200 C 282.057 285.200,282.000 285.467,282.000 288.953 C 282.000 292.370,281.928 292.725,281.200 292.916 C 280.564 293.082,280.400 293.462,280.400 294.763 C 280.400 295.929,280.233 296.400,279.818 296.400 C 279.470 296.400,279.131 296.962,278.974 297.800 C 278.784 298.813,278.502 299.200,277.955 299.200 C 277.341 299.200,277.200 299.498,277.200 300.800 C 277.200 301.997,277.040 302.400,276.563 302.400 C 276.212 302.400,275.831 302.760,275.716 303.200 C 275.601 303.640,275.258 304.000,274.953 304.000 C 274.574 304.000,274.400 304.504,274.400 305.600 C 274.400 306.933,274.267 307.200,273.600 307.200 C 273.160 307.200,272.800 307.458,272.800 307.773 C 272.800 308.088,272.440 308.460,272.000 308.600 C 271.560 308.740,271.200 309.112,271.200 309.427 C 271.200 309.742,270.840 310.000,270.400 310.000 C 269.867 310.000,269.600 310.267,269.600 310.800 C 269.600 311.333,269.333 311.600,268.800 311.600 C 268.267 311.600,268.000 311.867,268.000 312.400 C 268.000 312.933,267.733 313.200,267.200 313.200 C 266.667 313.200,266.400 313.467,266.400 314.000 C 266.400 314.667,266.133 314.800,264.800 314.800 C 263.467 314.800,263.200 314.933,263.200 315.600 C 263.200 316.133,262.933 316.400,262.400 316.400 C 261.867 316.400,261.600 316.667,261.600 317.200 C 261.600 317.845,261.333 318.000,260.227 318.000 C 259.205 318.000,258.789 318.205,258.600 318.800 C 258.460 319.240,258.088 319.600,257.773 319.600 C 257.458 319.600,257.200 319.960,257.200 320.400 C 257.200 321.111,256.933 321.200,254.800 321.200 C 252.667 321.200,252.400 321.289,252.400 322.000 C 252.400 322.733,252.133 322.800,249.200 322.800 C 246.267 322.800,246.000 322.867,246.000 323.600 C 246.000 324.373,245.733 324.400,238.200 324.400 C 230.667 324.400,230.400 324.373,230.400 323.600 C 230.400 322.889,230.133 322.800,228.000 322.800 C 225.867 322.800,225.600 322.711,225.600 322.000 C 225.600 321.297,225.333 321.200,223.400 321.200 C 221.467 321.200,221.200 321.103,221.200 320.400 C 221.200 319.733,220.933 319.600,219.600 319.600 C 218.267 319.600,218.000 319.467,218.000 318.800 C 218.000 318.053,217.733 318.000,214.000 318.000 C 210.267 318.000,210.000 318.053,210.000 318.800 C 210.000 319.448,209.733 319.600,208.600 319.600 C 207.467 319.600,207.200 319.752,207.200 320.400 C 207.200 321.067,206.933 321.200,205.600 321.200 C 204.267 321.200,204.000 321.333,204.000 322.000 C 204.000 322.533,203.733 322.800,203.200 322.800 C 202.667 322.800,202.400 323.067,202.400 323.600 C 202.400 324.267,202.133 324.400,200.800 324.400 C 199.644 324.400,199.200 324.567,199.200 325.000 C 199.200 325.368,198.826 325.600,198.233 325.600 C 196.883 325.600,196.000 325.994,196.000 326.596 C 196.000 326.877,195.640 327.201,195.200 327.316 C 194.760 327.431,194.400 327.812,194.400 328.163 C 194.400 328.624,194.014 328.800,193.000 328.800 C 191.867 328.800,191.600 328.952,191.600 329.600 C 191.600 330.267,191.333 330.400,190.000 330.400 C 188.667 330.400,188.400 330.533,188.400 331.200 C 188.400 331.911,188.133 332.000,186.000 332.000 C 183.867 332.000,183.600 332.089,183.600 332.800 C 183.600 333.467,183.333 333.600,182.000 333.600 C 180.667 333.600,180.400 333.733,180.400 334.400 C 180.400 335.103,180.133 335.200,178.200 335.200 C 176.267 335.200,176.000 335.297,176.000 336.000 C 176.000 336.667,175.733 336.800,174.400 336.800 C 173.067 336.800,172.800 336.933,172.800 337.600 C 172.800 338.333,172.533 338.400,169.600 338.400 C 166.667 338.400,166.400 338.467,166.400 339.200 C 166.400 339.911,166.133 340.000,164.000 340.000 C 161.867 340.000,161.600 340.089,161.600 340.800 C 161.600 341.544,161.333 341.600,157.800 341.600 C 154.689 341.600,154.000 341.709,154.000 342.200 C 154.000 342.720,152.422 342.800,142.200 342.800 C 131.978 342.800,130.400 342.720,130.400 342.200 C 130.400 341.720,129.800 341.600,127.400 341.600 C 124.667 341.600,124.400 341.529,124.400 340.800 C 124.400 340.089,124.133 340.000,122.000 340.000 C 119.867 340.000,119.600 339.911,119.600 339.200 C 119.600 338.533,119.333 338.400,118.000 338.400 C 116.667 338.400,116.400 338.267,116.400 337.600 C 116.400 336.933,116.133 336.800,114.800 336.800 C 113.467 336.800,113.200 336.667,113.200 336.000 C 113.200 335.467,112.933 335.200,112.400 335.200 C 111.867 335.200,111.600 334.933,111.600 334.400 C 111.600 333.733,111.333 333.600,110.000 333.600 C 108.667 333.600,108.400 333.467,108.400 332.800 C 108.400 332.356,108.133 332.000,107.800 332.000 C 107.470 332.000,107.200 331.713,107.200 331.363 C 107.200 331.012,106.840 330.631,106.400 330.516 C 105.957 330.400,105.600 329.970,105.600 329.553 C 105.600 329.067,105.317 328.800,104.800 328.800 C 104.267 328.800,104.000 328.533,104.000 328.000 C 104.000 327.467,103.733 327.200,103.200 327.200 C 102.735 327.200,102.400 326.933,102.400 326.563 C 102.400 326.212,102.040 325.831,101.600 325.716 C 101.160 325.601,100.800 325.258,100.800 324.953 C 100.800 324.649,100.440 324.400,100.000 324.400 C 99.333 324.400,99.200 324.133,99.200 322.800 C 99.200 321.467,99.067 321.200,98.400 321.200 C 97.867 321.200,97.600 320.933,97.600 320.400 C 97.600 319.867,97.333 319.600,96.800 319.600 C 96.133 319.600,96.000 319.333,96.000 318.000 C 96.000 316.667,95.867 316.400,95.200 316.400 C 94.533 316.400,94.400 316.133,94.400 314.800 C 94.400 313.467,94.267 313.200,93.600 313.200 C 92.899 313.200,92.800 312.933,92.800 311.043 C 92.800 309.494,92.631 308.821,92.200 308.655 C 91.740 308.479,91.600 307.721,91.600 305.413 C 91.600 302.667,91.529 302.400,90.800 302.400 C 89.552 302.400,89.552 288.610,90.800 288.284 C 91.530 288.093,91.600 287.738,91.600 284.237 C 91.600 281.093,91.708 280.400,92.200 280.400 C 92.667 280.400,92.800 279.867,92.800 278.000 C 92.800 275.867,92.889 275.600,93.600 275.600 C 94.303 275.600,94.400 275.333,94.400 273.400 C 94.400 271.467,94.497 271.200,95.200 271.200 C 95.867 271.200,96.000 270.933,96.000 269.600 C 96.000 268.267,96.133 268.000,96.800 268.000 C 97.467 268.000,97.600 267.733,97.600 266.400 C 97.600 265.067,97.733 264.800,98.400 264.800 C 99.111 264.800,99.200 264.533,99.200 262.400 C 99.200 260.267,99.289 260.000,100.000 260.000 C 100.648 260.000,100.800 259.733,100.800 258.600 C 100.800 257.467,100.952 257.200,101.600 257.200 C 102.267 257.200,102.400 256.933,102.400 255.600 C 102.400 254.267,102.533 254.000,103.200 254.000 C 103.733 254.000,104.000 253.733,104.000 253.200 C 104.000 252.667,104.267 252.400,104.800 252.400 C 105.467 252.400,105.600 252.133,105.600 250.800 C 105.600 249.467,105.733 249.200,106.400 249.200 C 107.067 249.200,107.200 248.933,107.200 247.600 C 107.200 246.444,107.367 246.000,107.800 246.000 C 108.133 246.000,108.400 245.644,108.400 245.200 C 108.400 244.667,108.667 244.400,109.200 244.400 C 109.848 244.400,110.000 244.133,110.000 243.000 C 110.000 241.867,110.152 241.600,110.800 241.600 C 111.333 241.600,111.600 241.333,111.600 240.800 C 111.600 240.267,111.867 240.000,112.400 240.000 C 112.917 240.000,113.200 239.733,113.200 239.247 C 113.200 238.830,113.557 238.400,114.000 238.284 C 114.613 238.124,114.800 237.738,114.800 236.637 C 114.800 235.467,114.948 235.200,115.600 235.200 C 116.133 235.200,116.400 234.933,116.400 234.400 C 116.400 233.867,116.667 233.600,117.200 233.600 C 117.733 233.600,118.000 233.333,118.000 232.800 C 118.000 232.267,118.267 232.000,118.800 232.000 C 119.333 232.000,119.600 231.733,119.600 231.200 C 119.600 230.667,119.867 230.400,120.400 230.400 C 120.933 230.400,121.200 230.133,121.200 229.600 C 121.200 229.067,121.467 228.800,122.000 228.800 C 122.518 228.800,122.800 228.533,122.800 228.043 C 122.800 227.626,123.070 227.182,123.400 227.055 C 123.730 226.929,124.000 226.549,124.000 226.213 C 124.000 225.867,124.348 225.600,124.800 225.600 C 125.448 225.600,125.600 225.333,125.600 224.200 C 125.600 223.242,125.784 222.800,126.182 222.800 C 126.936 222.800,128.800 220.936,128.800 220.182 C 128.800 219.862,129.160 219.600,129.600 219.600 C 130.133 219.600,130.400 219.333,130.400 218.800 C 130.400 218.267,130.667 218.000,131.200 218.000 C 131.733 218.000,132.000 217.733,132.000 217.200 C 132.000 216.667,132.267 216.400,132.800 216.400 C 133.333 216.400,133.600 216.133,133.600 215.600 C 133.600 214.933,133.867 214.800,135.200 214.800 C 136.503 214.800,136.800 214.660,136.800 214.043 C 136.800 213.626,137.070 213.182,137.400 213.055 C 137.730 212.929,138.000 212.549,138.000 212.213 C 138.000 211.826,138.369 211.600,139.000 211.600 C 139.733 211.600,140.000 211.387,140.000 210.800 C 140.000 210.267,140.267 210.000,140.800 210.000 C 141.333 210.000,141.600 209.733,141.600 209.200 C 141.600 208.756,141.867 208.400,142.200 208.400 C 142.530 208.400,142.800 208.130,142.800 207.800 C 142.800 207.467,143.156 207.200,143.600 207.200 C 144.133 207.200,144.400 206.933,144.400 206.400 C 144.400 205.867,144.667 205.600,145.200 205.600 C 145.733 205.600,146.000 205.333,146.000 204.800 C 146.000 204.133,146.267 204.000,147.600 204.000 C 148.933 204.000,149.200 203.867,149.200 203.200 C 149.200 202.667,149.467 202.400,150.000 202.400 C 150.533 202.400,150.800 202.133,150.800 201.600 C 150.800 201.067,151.067 200.800,151.600 200.800 C 152.133 200.800,152.400 200.533,152.400 200.000 C 152.400 199.467,152.667 199.200,153.200 199.200 C 153.733 199.200,154.000 198.933,154.000 198.400 C 154.000 197.733,154.267 197.600,155.600 197.600 C 156.933 197.600,157.200 197.467,157.200 196.800 C 157.200 196.356,157.467 196.000,157.800 196.000 C 158.133 196.000,158.400 195.644,158.400 195.200 C 158.400 194.533,158.667 194.400,160.000 194.400 C 161.333 194.400,161.600 194.267,161.600 193.600 C 161.600 193.067,161.867 192.800,162.400 192.800 C 162.844 192.800,163.200 192.533,163.200 192.200 C 163.200 191.767,163.644 191.600,164.800 191.600 C 166.133 191.600,166.400 191.467,166.400 190.800 C 166.400 190.133,166.667 190.000,168.000 190.000 C 169.333 190.000,169.600 189.867,169.600 189.200 C 169.600 188.678,169.867 188.400,170.367 188.400 C 171.559 188.400,172.400 187.969,172.400 187.357 C 172.400 187.030,172.812 186.800,173.400 186.800 C 174.133 186.800,174.400 186.587,174.400 186.000 C 174.400 185.352,174.667 185.200,175.800 185.200 C 176.933 185.200,177.200 185.048,177.200 184.400 C 177.200 183.733,177.467 183.600,178.800 183.600 C 180.133 183.600,180.400 183.467,180.400 182.800 C 180.400 182.133,180.667 182.000,182.000 182.000 C 183.333 182.000,183.600 181.867,183.600 181.200 C 183.600 180.489,183.867 180.400,186.000 180.400 C 188.133 180.400,188.400 180.311,188.400 179.600 C 188.400 178.933,188.667 178.800,190.000 178.800 C 191.333 178.800,191.600 178.667,191.600 178.000 C 191.600 177.297,191.867 177.200,193.800 177.200 C 195.733 177.200,196.000 177.103,196.000 176.400 C 196.000 175.689,196.267 175.600,198.400 175.600 C 200.267 175.600,200.800 175.467,200.800 175.000 C 200.800 174.519,201.404 174.400,203.837 174.400 C 206.538 174.400,206.898 174.311,207.084 173.600 C 207.269 172.891,207.630 172.800,210.247 172.800 C 212.933 172.800,213.200 172.728,213.200 172.000 C 213.200 171.216,213.467 171.200,226.600 171.200 C 239.733 171.200,240.000 171.216,240.000 172.000 M214.800 186.000 C 214.800 186.744,214.533 186.800,211.000 186.800 C 207.467 186.800,207.200 186.856,207.200 187.600 C 207.200 188.311,206.933 188.400,204.800 188.400 C 202.667 188.400,202.400 188.489,202.400 189.200 C 202.400 189.911,202.133 190.000,200.000 190.000 C 197.867 190.000,197.600 190.089,197.600 190.800 C 197.600 191.511,197.333 191.600,195.200 191.600 C 193.333 191.600,192.800 191.733,192.800 192.200 C 192.800 192.619,192.378 192.800,191.400 192.800 C 190.267 192.800,190.000 192.952,190.000 193.600 C 190.000 194.267,189.733 194.400,188.400 194.400 C 187.067 194.400,186.800 194.533,186.800 195.200 C 186.800 195.879,186.533 196.000,185.033 196.000 C 182.886 196.000,182.000 196.304,182.000 197.043 C 182.000 197.349,181.640 197.600,181.200 197.600 C 180.667 197.600,180.400 197.867,180.400 198.400 C 180.400 199.067,180.133 199.200,178.800 199.200 C 177.467 199.200,177.200 199.333,177.200 200.000 C 177.200 200.648,176.933 200.800,175.800 200.800 C 174.667 200.800,174.400 200.952,174.400 201.600 C 174.400 202.133,174.133 202.400,173.600 202.400 C 173.067 202.400,172.800 202.667,172.800 203.200 C 172.800 203.867,172.533 204.000,171.200 204.000 C 169.867 204.000,169.600 204.133,169.600 204.800 C 169.600 205.467,169.333 205.600,168.000 205.600 C 166.667 205.600,166.400 205.733,166.400 206.400 C 166.400 206.933,166.133 207.200,165.600 207.200 C 165.158 207.200,164.800 207.467,164.800 207.795 C 164.800 208.180,164.235 208.481,163.200 208.646 C 162.319 208.787,161.600 209.128,161.600 209.404 C 161.600 209.681,161.240 210.001,160.800 210.116 C 160.360 210.231,160.000 210.612,160.000 210.963 C 160.000 211.313,159.742 211.600,159.427 211.600 C 159.112 211.600,158.740 211.960,158.600 212.400 C 158.411 212.995,157.995 213.200,156.973 213.200 C 155.867 213.200,155.600 213.355,155.600 214.000 C 155.600 214.533,155.333 214.800,154.800 214.800 C 154.267 214.800,154.000 215.067,154.000 215.600 C 154.000 216.133,153.733 216.400,153.200 216.400 C 152.667 216.400,152.400 216.667,152.400 217.200 C 152.400 217.733,152.133 218.000,151.600 218.000 C 151.067 218.000,150.800 218.267,150.800 218.800 C 150.800 219.333,150.533 219.600,150.000 219.600 C 149.467 219.600,149.200 219.867,149.200 220.400 C 149.200 220.933,148.933 221.200,148.400 221.200 C 147.867 221.200,147.600 221.467,147.600 222.000 C 147.600 222.533,147.333 222.800,146.800 222.800 C 146.267 222.800,146.000 223.067,146.000 223.600 C 146.000 224.234,145.731 224.401,144.700 224.407 C 143.412 224.414,141.600 225.787,141.600 226.756 C 141.600 227.000,141.240 227.200,140.800 227.200 C 140.267 227.200,140.000 227.467,140.000 228.000 C 140.000 228.533,139.733 228.800,139.200 228.800 C 138.535 228.800,138.400 229.067,138.400 230.376 C 138.400 231.908,138.358 231.955,136.900 232.076 C 135.481 232.193,135.393 232.281,135.276 233.700 C 135.179 234.875,134.984 235.200,134.376 235.200 C 133.867 235.200,133.600 235.475,133.600 236.000 C 133.600 236.533,133.333 236.800,132.800 236.800 C 132.267 236.800,132.000 237.067,132.000 237.600 C 132.000 238.133,131.733 238.400,131.200 238.400 C 130.667 238.400,130.400 238.667,130.400 239.200 C 130.400 239.733,130.133 240.000,129.600 240.000 C 129.067 240.000,128.800 240.267,128.800 240.800 C 128.800 241.333,128.533 241.600,128.000 241.600 C 127.556 241.600,127.200 241.867,127.200 242.200 C 127.200 242.530,126.933 242.800,126.608 242.800 C 126.282 242.800,125.902 243.250,125.764 243.800 C 125.626 244.350,125.263 244.800,124.957 244.800 C 124.587 244.800,124.400 245.271,124.400 246.200 C 124.400 247.333,124.248 247.600,123.600 247.600 C 123.067 247.600,122.800 247.867,122.800 248.400 C 122.800 248.933,122.533 249.200,122.000 249.200 C 121.333 249.200,121.200 249.467,121.200 250.800 C 121.200 252.133,121.067 252.400,120.400 252.400 C 119.867 252.400,119.600 252.667,119.600 253.200 C 119.600 253.733,119.333 254.000,118.800 254.000 C 118.133 254.000,118.000 254.267,118.000 255.600 C 118.000 256.933,117.867 257.200,117.200 257.200 C 116.760 257.200,116.400 257.458,116.400 257.773 C 116.400 258.088,116.040 258.460,115.600 258.600 C 115.005 258.789,114.800 259.205,114.800 260.227 C 114.800 261.333,114.645 261.600,114.000 261.600 C 113.333 261.600,113.200 261.867,113.200 263.200 C 113.200 264.533,113.067 264.800,112.400 264.800 C 111.737 264.800,111.600 265.067,111.600 266.353 C 111.600 267.570,111.427 267.952,110.800 268.116 C 110.152 268.285,110.000 268.662,110.000 270.101 C 110.000 271.303,109.741 272.176,109.200 272.800 C 108.760 273.307,108.400 274.145,108.400 274.661 C 108.400 275.229,108.163 275.600,107.800 275.600 C 107.317 275.600,107.200 276.222,107.200 278.800 C 107.200 281.733,107.133 282.000,106.400 282.000 C 105.653 282.000,105.600 282.267,105.600 286.000 C 105.600 289.733,105.547 290.000,104.800 290.000 C 104.040 290.000,104.000 290.267,104.000 295.400 C 104.000 300.533,104.040 300.800,104.800 300.800 C 105.544 300.800,105.600 301.067,105.600 304.600 C 105.600 308.133,105.656 308.400,106.400 308.400 C 107.067 308.400,107.200 308.667,107.200 310.000 C 107.200 311.122,107.371 311.600,107.773 311.600 C 108.088 311.600,108.460 311.960,108.600 312.400 C 108.740 312.840,109.112 313.200,109.427 313.200 C 109.766 313.200,110.000 313.594,110.000 314.167 C 110.000 315.548,110.398 316.400,111.043 316.400 C 111.349 316.400,111.600 316.760,111.600 317.200 C 111.600 317.733,111.867 318.000,112.400 318.000 C 112.933 318.000,113.200 318.267,113.200 318.800 C 113.200 319.333,113.467 319.600,114.000 319.600 C 114.533 319.600,114.800 319.867,114.800 320.400 C 114.800 320.917,115.067 321.200,115.553 321.200 C 115.970 321.200,116.400 321.557,116.516 322.000 C 116.676 322.613,117.062 322.800,118.163 322.800 C 119.333 322.800,119.600 322.948,119.600 323.600 C 119.600 324.133,119.867 324.400,120.400 324.400 C 120.844 324.400,121.200 324.667,121.200 325.000 C 121.200 325.433,121.644 325.600,122.800 325.600 C 124.133 325.600,124.400 325.733,124.400 326.400 C 124.400 327.144,124.667 327.200,128.200 327.200 C 131.733 327.200,132.000 327.256,132.000 328.000 C 132.000 328.781,132.267 328.800,143.000 328.800 C 153.733 328.800,154.000 328.781,154.000 328.000 C 154.000 327.256,154.267 327.200,157.800 327.200 C 161.333 327.200,161.600 327.144,161.600 326.400 C 161.600 325.689,161.867 325.600,164.000 325.600 C 165.867 325.600,166.400 325.467,166.400 325.000 C 166.400 324.538,166.915 324.400,168.637 324.400 C 170.538 324.400,170.906 324.280,171.084 323.600 C 171.243 322.994,171.630 322.800,172.684 322.800 C 173.738 322.800,174.125 322.606,174.284 322.000 C 174.437 321.416,174.832 321.199,175.747 321.195 C 177.603 321.186,178.800 320.778,178.800 320.153 C 178.800 319.774,179.304 319.600,180.400 319.600 C 181.733 319.600,182.000 319.467,182.000 318.800 C 182.000 318.133,182.267 318.000,183.600 318.000 C 184.933 318.000,185.200 317.867,185.200 317.200 C 185.200 316.533,185.467 316.400,186.800 316.400 C 188.133 316.400,188.400 316.267,188.400 315.600 C 188.400 314.933,188.667 314.800,190.000 314.800 C 191.333 314.800,191.600 314.667,191.600 314.000 C 191.600 313.352,191.867 313.200,193.000 313.200 C 194.133 313.200,194.400 313.048,194.400 312.400 C 194.400 311.733,194.667 311.600,196.000 311.600 C 197.333 311.600,197.600 311.467,197.600 310.800 C 197.600 310.267,197.867 310.000,198.400 310.000 C 198.933 310.000,199.200 309.733,199.200 309.200 C 199.200 308.667,199.467 308.400,200.000 308.400 C 200.729 308.400,200.800 308.133,200.800 305.400 C 200.800 302.667,200.729 302.400,200.000 302.400 C 199.333 302.400,199.200 302.133,199.200 300.800 C 199.200 299.467,199.067 299.200,198.400 299.200 C 197.689 299.200,197.600 298.933,197.600 296.800 C 197.600 294.667,197.511 294.400,196.800 294.400 C 196.097 294.400,196.000 294.133,196.000 292.200 C 196.000 290.267,195.903 290.000,195.200 290.000 C 194.453 290.000,194.400 289.733,194.400 286.000 C 194.400 282.267,194.347 282.000,193.600 282.000 C 192.867 282.000,192.800 281.733,192.800 278.800 C 192.800 275.867,192.867 275.600,193.600 275.600 C 194.344 275.600,194.400 275.333,194.400 271.800 C 194.400 268.267,194.456 268.000,195.200 268.000 C 195.911 268.000,196.000 267.733,196.000 265.600 C 196.000 263.467,196.089 263.200,196.800 263.200 C 197.511 263.200,197.600 262.933,197.600 260.800 C 197.600 258.667,197.689 258.400,198.400 258.400 C 198.844 258.400,199.200 258.133,199.200 257.800 C 199.200 257.467,199.556 257.200,200.000 257.200 C 200.667 257.200,200.800 256.933,200.800 255.600 C 200.800 254.267,200.933 254.000,201.600 254.000 C 202.133 254.000,202.400 253.733,202.400 253.200 C 202.400 252.667,202.667 252.400,203.200 252.400 C 203.867 252.400,204.000 252.133,204.000 250.800 C 204.000 249.467,204.133 249.200,204.800 249.200 C 205.333 249.200,205.600 248.933,205.600 248.400 C 205.600 247.867,205.867 247.600,206.400 247.600 C 206.933 247.600,207.200 247.333,207.200 246.800 C 207.200 246.356,207.467 246.000,207.800 246.000 C 208.133 246.000,208.400 245.644,208.400 245.200 C 208.400 244.533,208.667 244.400,210.000 244.400 C 211.333 244.400,211.600 244.267,211.600 243.600 C 211.600 243.067,211.867 242.800,212.400 242.800 C 212.844 242.800,213.200 242.533,213.200 242.200 C 213.200 241.867,213.556 241.600,214.000 241.600 C 214.533 241.600,214.800 241.333,214.800 240.800 C 214.800 240.133,215.067 240.000,216.400 240.000 C 217.733 240.000,218.000 239.867,218.000 239.200 C 218.000 238.536,218.267 238.400,219.567 238.400 C 221.522 238.400,222.400 238.077,222.400 237.357 C 222.400 236.943,223.015 236.800,224.800 236.800 C 226.933 236.800,227.200 236.711,227.200 236.000 C 227.200 235.267,227.467 235.200,230.400 235.200 C 233.333 235.200,233.600 235.133,233.600 234.400 C 233.600 233.647,233.867 233.600,238.153 233.600 C 242.370 233.600,242.722 233.659,242.916 234.400 C 243.107 235.130,243.462 235.200,246.963 235.200 C 250.533 235.200,250.800 235.256,250.800 236.000 C 250.800 236.760,251.067 236.800,256.200 236.800 L 261.600 236.800 261.600 235.200 C 261.600 233.867,261.733 233.600,262.400 233.600 C 263.184 233.600,263.200 233.333,263.200 220.400 C 263.200 207.467,263.184 207.200,262.400 207.200 C 261.689 207.200,261.600 206.933,261.600 204.800 C 261.600 202.667,261.511 202.400,260.800 202.400 C 260.267 202.400,260.000 202.133,260.000 201.600 C 260.000 201.067,259.733 200.800,259.200 200.800 C 258.533 200.800,258.400 200.533,258.400 199.200 C 258.400 198.104,258.226 197.600,257.847 197.600 C 257.542 197.600,257.199 197.240,257.084 196.800 C 256.969 196.360,256.588 196.000,256.237 196.000 C 255.779 196.000,255.600 195.618,255.600 194.643 C 255.600 193.209,255.104 192.800,253.367 192.800 C 252.774 192.800,252.400 192.568,252.400 192.200 C 252.400 191.867,252.044 191.600,251.600 191.600 C 251.067 191.600,250.800 191.333,250.800 190.800 C 250.800 190.133,250.533 190.000,249.200 190.000 C 247.867 190.000,247.600 189.867,247.600 189.200 C 247.600 188.667,247.333 188.400,246.800 188.400 C 246.267 188.400,246.000 188.133,246.000 187.600 C 246.000 186.870,245.733 186.800,242.963 186.800 C 240.262 186.800,239.902 186.711,239.716 186.000 C 239.512 185.222,239.170 185.200,227.153 185.200 C 215.067 185.200,214.800 185.217,214.800 186.000 " stroke="none" fill="#0484dc" fill-rule="evenodd"></path><path id="path1" d="" stroke="none" fill="#0884dc" fill-rule="evenodd"></path><path id="path2" d="" stroke="none" fill="#0884dc" fill-rule="evenodd"></path><path id="path3" d="" stroke="none" fill="#0884dc" fill-rule="evenodd"></path><path id="path4" d="" stroke="none" fill="#0884dc" fill-rule="evenodd"></path></g></svg>